<?xml version="1.0" standalone="no"?>
<!DOCTYPE svg PUBLIC "-//W3C//DTD SVG 20010904//EN"
 "http://www.w3.org/TR/2001/REC-SVG-20010904/DTD/svg10.dtd">
<svg version="1.0" xmlns="http://www.w3.org/2000/svg"
 width="598.000000pt" height="598.000000pt" viewBox="0 0 598.000000 598.000000"
 preserveAspectRatio="xMidYMid meet">
<metadata>
Created by potrace 1.14, written by Peter Selinger 2001-2017
</metadata>
<g transform="translate(0.000000,598.000000) scale(0.100000,-0.100000)"
fill="#000000" stroke="none">
<path d="M2411 5710 l-1 -270 262 0 c145 0 523 0 841 0 l579 0 -51 -65 c-28
-36 -73 -94 -101 -128 -47 -61 -51 -64 -91 -62 -48 2 -50 -2 -53 -82 -1 -35
-6 -58 -14 -61 -7 -2 -10 -8 -6 -13 3 -5 0 -9 -5 -9 -6 0 -11 -8 -11 -17 -1
-17 -1 -17 -11 0 -5 9 -8 21 -4 26 3 5 1 12 -4 15 -5 4 -7 -11 -5 -34 4 -33 2
-40 -13 -41 -10 0 -13 -3 -6 -6 10 -4 10 -7 0 -18 -23 -25 -47 -55 -47 -61 0
-3 -15 -27 -32 -52 -18 -26 -34 -49 -35 -51 -2 -2 -11 3 -21 12 -10 10 -22 17
-26 17 -5 0 -25 14 -46 30 -21 17 -42 30 -48 30 -6 0 -12 4 -14 8 -6 16 -180
110 -273 148 -33 14 -73 31 -90 39 -33 15 -225 74 -265 81 -14 3 -58 11 -98
20 -115 23 -194 29 -377 28 -186 0 -254 -6 -372 -29 -238 -48 -432 -119 -636
-234 -55 -30 -206 -129 -217 -141 -3 -3 -25 -21 -50 -40 -112 -86 -240 -216
-335 -340 -68 -88 -125 -169 -125 -177 0 -3 -6 -14 -14 -22 -33 -38 -136 -257
-185 -393 -38 -106 -85 -311 -98 -434 -10 -87 -10 -377 -1 -466 16 -149 73
-377 128 -513 38 -94 123 -267 151 -307 11 -14 19 -31 19 -37 0 -6 4 -11 8
-11 5 0 14 -11 20 -24 6 -14 18 -33 26 -43 8 -10 32 -42 54 -71 73 -98 146
-178 248 -272 245 -225 544 -388 874 -475 17 -4 121 -26 143 -30 15 -3 39 -7
55 -10 140 -26 485 -27 622 -1 14 3 41 7 60 10 19 3 44 8 55 11 11 2 40 9 65
16 25 6 50 12 55 13 6 1 16 5 23 9 6 5 12 6 12 3 0 -5 163 52 230 82 136 59
254 125 342 188 27 19 53 34 58 34 6 0 10 3 10 8 0 17 48 35 90 33 104 -6 117
-8 126 -14 12 -7 12 -43 -1 -54 -4 -5 -5 -2 0 6 5 9 3 12 -6 9 -8 -3 -13 -11
-12 -17 4 -17 -14 -13 -21 5 -4 10 -2 13 6 8 7 -5 8 -3 3 6 -6 9 -4 11 6 5 12
-7 12 -6 1 7 -9 11 -9 18 -2 21 6 3 5 4 -2 3 -7 -2 -12 -9 -10 -16 1 -6 -3
-10 -10 -7 -7 2 -12 10 -10 16 1 7 -2 10 -8 6 -8 -5 -7 -11 2 -22 10 -12 8
-18 -12 -33 l-24 -18 33 4 c31 4 32 2 20 -14 -8 -9 -18 -21 -24 -25 -5 -5 1
-5 15 -1 22 6 23 5 11 -10 -11 -13 -11 -19 -1 -31 15 -18 7 -19 -23 -4 -22 10
-22 10 -2 -6 20 -16 20 -16 1 -31 -17 -12 -18 -14 -3 -14 9 0 17 5 17 11 0 8
4 8 13 2 14 -12 47 -13 47 -2 0 13 -18 20 -25 9 -4 -6 -11 -8 -16 -4 -6 4 -6
11 2 20 6 8 8 14 4 14 -4 0 -2 7 5 15 10 12 10 15 -1 15 -11 0 -11 2 1 10 13
8 13 10 1 10 -11 0 -9 4 5 15 19 15 19 15 -1 9 -19 -5 -19 -5 -2 6 14 9 22 9
30 1 8 -8 7 -11 -3 -11 -7 0 -10 -3 -7 -7 4 -3 1 -13 -6 -21 -10 -13 -9 -15 5
-10 11 5 15 2 13 -10 -1 -10 -9 -16 -21 -14 -15 3 -16 1 -5 -12 7 -9 16 -14
20 -11 10 6 8 -71 -2 -81 -11 -12 -37 -14 -37 -3 0 5 6 9 13 9 8 0 7 4 -3 10
-8 5 -10 10 -4 10 5 0 15 -5 22 -12 13 -13 16 0 4 17 -9 13 -42 12 -66 -2 -17
-9 -17 -11 -2 -16 11 -5 15 -3 10 4 -4 7 -1 10 6 7 8 -2 14 -14 15 -26 1 -17
-2 -21 -17 -16 -10 3 -18 0 -18 -6 0 -6 5 -8 11 -4 8 4 9 -1 5 -17 -6 -21 -5
-22 4 -6 9 14 15 16 26 6 8 -6 14 -16 14 -21 0 -6 -6 -6 -14 1 -11 9 -15 8
-20 -4 -3 -9 -11 -13 -17 -9 -8 4 -9 3 -5 -5 6 -8 12 -9 20 -2 7 6 22 9 34 6
19 -3 21 -1 12 14 -5 10 -6 22 -2 26 4 5 2 5 -4 2 -6 -3 -11 -1 -11 6 0 7 7
13 16 13 14 0 16 -16 16 -104 0 -58 4 -107 10 -111 6 -4 141 -7 300 -7 l290 1
2 60 c1 33 2 69 3 80 1 11 1 58 1 105 -1 47 -1 108 -1 135 0 28 -1 71 -2 98
-3 53 -9 49 92 49 253 1 437 -56 549 -170 123 -125 191 -310 186 -506 -3 -125
-8 -156 -41 -248 -63 -175 -170 -332 -336 -493 -60 -58 -104 -105 -98 -105 5
0 10 5 10 10 0 6 5 10 11 10 7 0 34 16 60 35 27 19 51 35 54 35 3 0 13 7 23
15 9 9 60 48 112 88 129 99 129 99 244 212 280 276 414 528 414 784 0 78 -5
116 -32 216 -1 6 -10 27 -19 49 -9 21 -17 40 -17 43 0 13 -75 118 -108 151
-123 123 -334 208 -592 237 -19 2 -52 7 -72 9 -20 3 -56 8 -80 10 -24 3 -68 7
-98 11 -30 3 -77 8 -105 11 -95 9 -150 16 -154 20 -2 2 -3 27 -2 56 2 29 2 60
2 68 0 8 0 51 0 95 0 44 0 87 0 95 0 8 0 38 0 65 0 28 0 73 -1 100 -2 129 0
187 5 195 4 6 2 10 -4 10 -6 0 -6 11 -1 29 4 16 6 32 3 35 -3 3 -5 56 -4 118
2 133 3 116 -1 201 -2 37 -1 67 2 67 3 0 4 28 3 62 -2 35 -3 173 -3 308 0 135
0 254 0 265 -1 98 -1 118 4 123 3 3 1 11 -5 19 -9 9 -8 13 0 13 9 0 9 5 1 20
-6 11 -7 20 -3 20 8 0 8 89 -1 97 -2 2 0 18 4 34 5 16 6 29 2 29 -7 0 -6 54 1
133 2 20 0 37 -4 37 -4 0 -4 14 1 30 5 17 5 30 0 30 -5 0 -5 12 -1 28 5 15 5
36 1 47 -4 11 -6 23 -4 27 8 13 11 68 4 68 -4 0 -4 18 0 40 4 22 5 40 1 40 -7
0 -4 121 4 128 3 3 0 11 -6 18 -5 7 -6 15 -1 18 5 3 6 28 2 56 -4 27 -4 50 -1
50 3 0 6 11 6 25 0 14 -4 25 -8 25 -5 0 -6 4 -3 8 3 5 7 21 10 36 4 24 124
203 279 416 l62 85 0 265 -1 265 -1166 3 -1167 2 0 -270z m150 -1124 c121 -16
302 -74 429 -135 72 -35 74 -36 174 -103 115 -77 109 -69 86 -114 -12 -21 -30
-55 -42 -74 -12 -19 -31 -53 -44 -75 -12 -22 -36 -65 -53 -95 -111 -197 -332
-676 -346 -750 -1 -3 -18 -55 -38 -116 -34 -106 -56 -184 -62 -229 -2 -11 -4
-22 -6 -25 -1 -3 -3 -9 -4 -15 -1 -5 -4 -23 -8 -40 -34 -153 -39 -387 -12
-525 8 -44 38 -135 47 -144 4 -6 8 -17 8 -25 0 -26 126 -224 159 -251 3 -3 17
-17 30 -32 l23 -27 -38 -16 c-40 -18 -119 -42 -164 -51 -14 -3 -33 -7 -43 -10
-112 -34 -419 -39 -572 -9 -115 22 -245 64 -354 116 -336 157 -603 446 -738
799 -14 36 -27 72 -29 80 -2 8 -8 33 -14 55 -36 140 -45 209 -45 375 1 197 19
316 77 478 45 128 161 349 190 360 4 2 8 9 8 14 0 11 97 126 156 184 211 210
539 369 819 400 33 3 62 8 64 10 5 4 298 -4 342 -10z m1136 -893 c27 -65 73
-226 88 -313 4 -19 8 -109 10 -200 2 -130 -1 -187 -17 -270 -10 -58 -20 -111
-20 -117 -1 -7 -5 -13 -9 -13 -4 0 -6 -8 -4 -17 1 -10 -1 -22 -5 -28 -4 -5
-10 -23 -14 -38 -4 -15 -11 -25 -15 -22 -5 3 -7 -4 -4 -16 5 -18 3 -20 -18
-15 l-24 7 24 -14 24 -14 -24 -17 c-13 -9 -18 -16 -11 -16 8 0 6 -12 -8 -37
-11 -21 -20 -43 -20 -50 0 -6 -3 -13 -7 -15 -5 -1 -20 -28 -36 -58 -15 -30
-36 -66 -47 -80 l-19 -25 -24 23 c-30 28 -80 121 -97 177 -23 78 -31 263 -16
360 4 22 9 56 12 75 15 102 103 400 144 485 5 11 25 61 45 110 20 50 41 94 46
100 5 5 9 17 9 27 0 10 5 18 11 18 5 0 7 5 4 10 -3 6 -3 10 2 10 4 0 13 -12
20 -27z"/>
<path d="M3675 4991 c-3 -5 -2 -12 3 -15 5 -3 9 1 9 9 0 17 -3 19 -12 6z"/>
<path d="M3650 4960 c0 -5 5 -10 11 -10 5 0 7 5 4 10 -3 6 -8 10 -11 10 -2 0
-4 -4 -4 -10z"/>
<path d="M3770 1499 c0 -5 5 -7 10 -4 6 3 10 8 10 11 0 2 -4 4 -10 4 -5 0 -10
-5 -10 -11z"/>
<path d="M3697 1389 c7 -7 15 -10 18 -7 3 3 -2 9 -12 12 -14 6 -15 5 -6 -5z"/>
<path d="M3670 1265 c0 -7 30 -13 34 -7 3 4 -4 9 -15 9 -10 1 -19 0 -19 -2z"/>
<path d="M3696 1162 c-3 -5 1 -9 9 -9 8 0 12 4 9 9 -3 4 -7 8 -9 8 -2 0 -6 -4
-9 -8z"/>
<path d="M3758 1163 c13 -3 19 -9 16 -15 -4 -7 -2 -8 5 -4 17 11 3 26 -22 25
-22 -2 -22 -2 1 -6z"/>
</g>
</svg>
